<svg width="218" height="247" viewBox="0 0 218 247" fill="none" xmlns="http://www.w3.org/2000/svg">
<mask id="mask0_76_1181" style="mask-type:alpha" maskUnits="userSpaceOnUse" x="0" y="0" width="218" height="247">
<rect width="218" height="247" rx="6" fill="#262626"/>
</mask>
<g mask="url(#mask0_76_1181)">
<path d="M62.5208 190.24C62.5208 190.24 -30.1934 134.808 55.0238 138.948C91.2953 140.71 123.572 159.379 134.849 75.2895C145.925 -7.25115 196.884 16.4654 237.871 35.1342" stroke="#0068FF" stroke-miterlimit="10"/>
<path d="M70.1407 195.488C70.1407 195.488 -28.1657 145.945 53.7025 145.237C89.2366 144.93 127.859 165.268 140.548 81.539C152.854 0.387151 200.386 22.3143 241.374 40.9697" stroke="#0A63FF" stroke-miterlimit="10"/>
<path d="M77.7765 200.736C77.7765 200.736 -25.7838 156.842 52.3973 151.527C87.5165 149.137 132.161 171.171 146.264 87.7887C159.768 8.02567 203.905 28.1367 244.893 46.8055" stroke="#145FFF" stroke-miterlimit="10"/>
<path d="M85.3956 205.985C85.3956 205.985 -23.1116 167.392 51.0752 157.804C86.0869 153.277 136.415 177.06 151.978 94.0252C166.665 15.651 207.422 33.9592 248.41 52.628" stroke="#1E5AFF" stroke-miterlimit="10"/>
<path d="M93.0153 211.232C93.0153 211.232 -21.8521 165.923 49.7691 164.093C82.9066 151.781 140.671 182.975 157.693 100.275C173.547 23.2892 210.94 39.7947 251.928 58.4501" stroke="#2756FE" stroke-miterlimit="10"/>
<path d="M100.637 216.481C100.637 216.481 -19.7612 173.708 48.4494 170.383C80.788 154.545 144.897 188.878 163.394 106.524C180.385 30.9279 214.444 45.6306 255.432 64.286" stroke="#3151FE" stroke-miterlimit="10"/>
<path d="M108.27 221.729C108.27 221.729 -17.6734 181.48 47.1421 176.659C78.6972 157.309 149.105 194.78 169.107 112.761C187.204 38.5528 217.961 51.4394 258.948 70.1082" stroke="#3B4DFE" stroke-miterlimit="10"/>
<path d="M115.89 226.977C115.89 226.977 -15.5842 189.265 45.8208 182.949C76.5924 160.074 153.283 200.696 174.822 119.01C193.995 46.1913 221.463 57.275 262.451 75.9438" stroke="#4548FE" stroke-miterlimit="10"/>
<path d="M123.51 232.225C123.51 232.225 -13.4946 197.037 44.4998 189.239C74.4879 162.851 157.447 206.612 180.522 125.26C200.785 53.8431 224.982 63.1107 265.969 81.7795" stroke="#4F44FE" stroke-miterlimit="10"/>
<path d="M131.13 237.473C131.13 237.473 -11.4209 204.823 43.1783 195.515C72.383 165.602 161.579 212.501 186.221 131.496C207.529 61.4684 228.484 68.9332 269.472 87.602" stroke="#593FFE" stroke-miterlimit="10"/>
<path d="M138.765 242.721C138.765 242.721 -9.31686 212.595 41.8719 201.805C70.293 168.38 165.696 218.417 191.935 137.746C214.257 69.0932 232.001 74.7687 272.989 93.4241" stroke="#633BFE" stroke-miterlimit="10"/>
<path d="M146.387 247.969C146.387 247.969 -7.22569 220.38 40.5525 208.094C68.1901 171.144 169.784 224.319 197.652 143.995C220.973 76.7315 235.521 80.6041 276.509 99.2596" stroke="#6D36FE" stroke-miterlimit="10"/>
<path d="M154.005 253.217C154.005 253.217 -5.15329 228.152 39.2451 214.371C66.0838 173.908 173.854 230.208 203.35 150.232C227.654 84.3433 239.022 86.4132 280.026 105.082" stroke="#7632FD" stroke-miterlimit="10"/>
<path d="M161.625 258.465C161.625 258.465 -3.06365 235.937 37.9242 220.66C63.9948 176.672 177.894 236.097 209.065 156.481C234.322 91.9684 242.541 92.2488 283.544 110.918" stroke="#802DFD" stroke-miterlimit="10"/>
<path d="M169.261 263.714C169.261 263.714 -0.958173 243.709 36.6191 226.95C61.9063 179.437 181.92 241.987 214.781 162.731C240.975 99.5803 246.06 98.0847 287.063 116.754" stroke="#8A29FD" stroke-miterlimit="10"/>
<path d="M176.882 268.961C176.882 268.961 1.11616 251.495 35.2983 233.24C59.7866 182.201 185.899 247.849 220.481 168.967C247.581 107.165 249.563 103.907 290.566 122.576" stroke="#9424FD" stroke-miterlimit="10"/>
<path d="M184.501 274.21C184.501 274.21 3.20543 259.267 33.977 239.516C57.6818 184.965 189.848 253.698 226.196 175.217C254.187 114.764 253.081 109.743 294.084 128.411" stroke="#9E20FD" stroke-miterlimit="10"/>
<path d="M192.121 279.458C192.121 279.458 5.29443 267.052 32.6555 245.806C55.5768 187.743 193.765 259.547 231.895 181.467C260.762 122.349 256.598 115.578 297.586 134.234" stroke="#A81BFD" stroke-miterlimit="10"/>
<path d="M199.757 284.692C199.757 284.692 7.38454 274.81 31.3504 252.082C53.4882 190.494 197.668 265.369 237.611 187.689C267.322 129.907 260.117 121.387 301.105 140.043" stroke="#B217FD" stroke-miterlimit="10"/>
<path d="M207.377 289.94C207.377 289.94 9.47351 282.596 30.0289 258.358C51.3831 193.258 201.539 271.165 243.31 193.926C273.867 137.452 263.62 127.196 304.608 145.865" stroke="#BC12FD" stroke-miterlimit="10"/>
<path d="M214.996 295.189C214.996 295.189 15.7106 292.144 28.7229 264.648C59.7557 199.067 205.379 276.961 249.04 200.176C280.411 144.997 267.153 133.032 308.141 151.701" stroke="#C50EFC" stroke-miterlimit="10"/>
<path d="M222.616 300.437C222.616 300.437 16.5097 299.115 27.4019 270.938C54.5632 200.63 209.174 282.743 254.74 206.425C286.91 152.542 270.656 138.868 311.644 157.536" stroke="#CF09FC" stroke-miterlimit="10"/>
<path d="M230.253 305.685C230.253 305.685 17.2175 306.299 26.0972 277.214C48.9416 202.366 212.97 288.472 260.456 212.661C293.409 160.047 274.175 144.69 315.163 163.359" stroke="#D905FC" stroke-miterlimit="10"/>
<path d="M237.872 310.933C237.872 310.933 17.8156 313.711 24.7749 283.504C42.9952 204.329 216.717 294.201 266.155 218.911C299.891 167.552 277.677 150.526 318.665 169.181" stroke="#E300FC" stroke-miterlimit="10"/>
</g>
</svg>
